mtllib materials.mtl
v -0.0598937 0.004999995 -0.003570288
v -0.04013446 0.004999995 0.04460075
v -0.04013446 0 0.04460075
v -0.0598937 0 -0.003570288
v 0.009846836 0.004999995 0.05918649
v 0.009846836 0 0.05918649
v 0.05241328 0.004999995 0.02920359
v 0.05241328 0 0.02920359
v 0.05551143 0.004999995 -0.0227702
v 0.05551143 0 -0.0227702
v 0.01680836 0.004999995 -0.05759758
v 0.01680836 0 -0.05759758
v -0.03455174 0.004999995 -0.0490528
v -0.03455174 0 -0.0490528
v 0.02460913 0.01499975 -0.08432868
v -0.05058721 0.01499975 -0.0718182
v 0.08127433 0.01499975 -0.03333783
v 0.07673833 0.01499975 0.042757
v 0.01441675 0.01499975 0.08665499
v -0.05876088 0.01499975 0.06530002
v -0.08769041 0.01499975 -0.005227238
v 0.03178193 0.04499978 -0.1089078
v -0.06533179 0.04499978 -0.09275094
v 0.1049632 0.04499978 -0.04305476
v 0.09910512 0.04499978 0.05521932
v 0.01861878 0.04499978 0.1119122
v -0.07588783 0.04499978 0.08433288
v -0.1132494 0.04499978 -0.006750822
v 0.03426443 0.06499982 -0.1174147
v -0.07043487 0.06499982 -0.09999576
v 0.1131619 0.06499982 -0.0464178
v 0.1068462 0.06499982 0.05953252
v 0.02007309 0.06499982 0.1206536
v -0.08181545 0.06499982 0.09092015
v -0.1220953 0.06499982 -0.007278115
v 0.030838 0.07499981 -0.1056733
v -0.06339142 0.07499981 -0.08999625
v 0.1018458 0.07499981 -0.04177603
v 0.09616166 0.07499981 0.0535793
v 0.01806578 0.07499981 0.1085883
v -0.07363394 0.07499981 0.08182818
v -0.1098858 0.07499981 -0.006550312
v 0.02775422 0.04499984 -0.09510592
v -0.05705231 0.04499984 -0.08099666
v 0.09166121 0.04499984 -0.0375984
v 0.08654553 0.04499984 0.04822144
v 0.01625921 0.04499984 0.0977295
v -0.06627059 0.04499984 0.07364541
v -0.09889728 0.04499984 -0.005895257
v 0.02248093 0.02499986 -0.07703581
v -0.0462124 0.02499986 -0.06560728
v 0.0742456 0.02499986 -0.0304547
v 0.07010189 0.02499986 0.03905937
v 0.01316996 0.02499986 0.07916093
v -0.0536792 0.02499986 0.05965281
v -0.08010682 0.02499986 -0.004775167
vn -0.9251904 -5.369523E-08 0.3795032
vn -0.2801393 -1.729011E-07 0.9599594
vn 0.5758626 7.039056E-08 0.8175465
vn 0.9982281 1.748456E-07 0.0595043
vn 0.6689075 3.101411E-07 -0.7433457
vn -0.164114 -2.83488E-07 -0.9864414
vn -0.8735543 -1.69737E-07 -0.4867267
vn -0.06076384 -0.9289307 -0.3652336
vn 1.745358E-07 -1 1.040409E-08
vn 0.2476653 -0.9289308 -0.2752262
vn 0.369597 -0.9289309 0.02203165
vn 0.213215 -0.9289309 0.3026993
vn -0.1037224 -0.9289308 0.3554283
vn -0.3425552 -0.9289307 0.1405125
vn -0.3234368 -0.9289306 -0.1802126
vn -0.1300984 -0.6095744 -0.7819805
vn 0.5302626 -0.6095743 -0.5892714
vn 0.7913244 -0.6095742 0.04717075
vn 0.4565029 -0.6095738 0.6480932
vn -0.2220744 -0.609574 0.7609879
vn -0.7334253 -0.6095741 0.3008433
vn -0.6924918 -0.6095739 -0.3858429
vn -0.1524189 -0.3707516 -0.9161396
vn 0.6212363 -0.3707522 -0.6903683
vn 0.9270863 -0.3707521 0.05526343
vn 0.5348218 -0.3707517 0.7592818
vn -0.260174 -0.3707516 0.8915452
vn -0.8592535 -0.3707526 0.3524569
vn -0.8112974 -0.3707516 -0.4520395
vn -0.1102866 0.7405444 -0.6628959
vn 0.4495111 0.7405447 -0.4995332
vn 0.6708158 0.7405453 0.0399872
vn 0.3869832 0.7405452 0.5493969
vn -0.1882549 0.7405456 0.6450987
vn -0.6217341 0.7405452 0.2550287
vn -0.5870345 0.7405447 -0.3270843
vn 0.1558206 0.313889 0.9365862
vn -0.6351014 0.3138895 0.7057759
vn -0.9477775 0.3138886 -0.05649677
vn -0.5467578 0.313888 -0.7762283
vn 0.2659803 0.3138881 -0.9114432
vn 0.8784311 0.3138886 -0.3603229
vn 0.8294044 0.313889 0.4621278
vn 0.12517 0.6467553 0.7523564
vn -0.5101748 0.6467556 0.5669471
vn -0.7613459 0.6467555 -0.04538357
vn -0.4392082 0.6467553 -0.6235413
vn 0.2136609 0.6467554 -0.7321588
vn 0.7056404 0.6467555 -0.2894459
vn 0.6662579 0.646755 0.3712255
vn 3.206569E-09 1 1.911921E-10
vt 0.06032795 0.0760587
vt 0.05514624 0.07656731
vt 0.05509739 0.07606971
vt 0.0602791 0.07556109
vt 0.09053557 0.006607977
vt 0.08791842 0.01110901
vt 0.08748619 0.01085768
vt 0.09010334 0.006356648
vt 0.07285454 0.03674088
vt 0.07056862 0.04141884
vt 0.07011939 0.04119932
vt 0.07240531 0.03652136
vt 0.02211649 0.08773433
vt 0.01811409 0.09106444
vt 0.0177943 0.09068008
vt 0.02179669 0.08734997
vt -0.09018016 0.02491487
vt -0.09384544 0.02121697
vt -0.09349032 0.02086498
vt -0.08982504 0.02456288
vt -0.08051403 0.02075787
vt -0.08276115 0.01606115
vt -0.08231012 0.01584536
vt -0.080063 0.02054208
vt -0.05442159 0.06682766
vt -0.05718429 0.06241447
vt -0.05676048 0.06214917
vt -0.05399778 0.06656235
vt -0.08153889 0.005629159
vt -0.07984337 0.01055196
vt -0.0820035 0.0125738
vt -0.0844859 0.005366325
vt -0.05194787 -0.01551613
vt -0.04674683 -0.01527549
vt -0.04369217 -0.01105911
vt -0.04508412 -0.006042014
vt -0.04987451 -0.004002181
vt -0.05445608 -0.00647564
vt -0.05537881 -0.01159983
vt -0.06713612 0.0221132
vt -0.06244044 0.02436249
vt -0.06251755 0.02732019
vt -0.06939252 0.02402702
vt -0.03834608 0.023841
vt -0.03348022 0.02198841
vt -0.03139011 0.02408255
vt -0.03851422 0.02679493
vt -0.01316972 0.001027015
vt -0.01107821 -0.00374104
vt -0.008119576 -0.003762555
vt -0.01118176 0.003218358
vt -0.01133335 -0.03285314
vt -0.01350022 -0.03758742
vt -0.01154727 -0.03981002
vt -0.008374745 -0.03287856
vt -0.04471989 -0.04519834
vt -0.04991673 -0.04551707
vt -0.05095733 -0.04828675
vt -0.04334863 -0.0478201
vt -0.07703605 -0.01873312
vt -0.07965511 -0.0142332
vt -0.08259707 -0.01454755
vt -0.07876252 -0.02113589
vt -0.09876492 0.02332208
vt -0.09541596 0.03017004
vt -0.09832755 0.0328306
vt -0.1026526 0.02398668
vt -0.08298004 0.04612236
vt -0.07622298 0.04965114
vt -0.07699009 0.0535199
vt -0.08571662 0.04896261
vt -0.02154623 0.06634007
vt -0.01451649 0.06339173
vt -0.01202832 0.06645194
vt -0.02110701 0.07025962
vt 0.03092685 0.02572393
vt 0.03463368 0.01906288
vt 0.03848073 0.01993238
vt 0.03369348 0.02853491
vt 0.05002168 -0.03242124
vt 0.05016891 -0.04004281
vt 0.05397405 -0.04108045
vt 0.05378391 -0.03123743
vt -0.03089906 -0.08247292
vt -0.03837954 -0.0839401
vt -0.03874133 -0.08786756
vt -0.02908053 -0.08597274
vt -0.09778728 0.01767406
vt -0.09807499 0.02529163
vt -0.1018986 0.02625892
vt -0.1015271 0.01642108
vt -0.100401 0.02486844
vt -0.09592052 0.03363466
vt -0.09766307 0.03495709
vt -0.1024935 0.02550614
vt -0.09215312 0.04719352
vt -0.08379407 0.05239425
vt -0.08460523 0.05442584
vt -0.09361721 0.04881888
vt -0.008992461 0.08587432
vt -0.0001985759 0.0814484
vt 0.001113002 0.08319914
vt -0.008367778 0.08797076
vt 0.05225693 0.03887662
vt 0.0570455 0.03027482
vt 0.05911409 0.03098633
vt 0.05395148 0.04026002
vt 0.07655049 -0.01266075
vt 0.07912926 -0.02216186
vt 0.08130826 -0.02196885
vt 0.07852806 -0.0117256
vt 0.08603188 0.04527107
vt 0.0941339 0.03967834
vt 0.09567369 0.04123216
vt 0.08693881 0.04726174
vt -0.09139684 0.04434881
vt -0.08894999 0.05388475
vt -0.09094034 0.0547924
vt -0.09357831 0.04451161
vt -0.02001579 -0.0205879
vt -0.01805306 -0.01015711
vt -0.01961361 -0.01040347
vt -0.02138006 -0.01979119
vt -0.00153039 -0.06680129
vt -0.007649737 -0.05812908
vt -0.008559632 -0.05942063
vt -0.003052214 -0.06722562
vt 0.08466192 -0.01459585
vt 0.07742776 -0.02236249
vt 0.07887836 -0.0229884
vt 0.0853891 -0.01599842
vt 0.08632212 0.01961267
vt 0.08761707 0.009078118
vt 0.08902928 0.009786398
vt 0.08786383 0.0192675
vt 0.07748239 0.02836128
vt 0.08469906 0.02057839
vt 0.0854294 0.02197932
vt 0.0789344 0.02898393
vt 0.04662396 0.04300499
vt 0.05722766 0.04254097
vt 0.05676253 0.04405083
vt 0.0472192 0.04446845
vt 0.002077269 0.02685187
vt 0.009829887 0.03410105
vt 0.008425914 0.03482553
vt 0.001448553 0.02830126
vt 0.1014728 0.02555116
vt 0.09712756 0.03405812
vt 0.09453095 0.03219549
vt 0.09844168 0.02453922
vt 0.09486873 0.04759004
vt 0.08688448 0.05283421
vt 0.08554906 0.04993103
vt 0.09273489 0.04521128
vt 0.004270847 0.09090933
vt -0.004161053 0.08642017
vt -0.002254575 0.08385559
vt 0.005334139 0.08789583
vt -0.05846426 0.04181165
vt -0.06307448 0.03344533
vt -0.06007663 0.03233871
vt -0.05592743 0.0398684
vt -0.08273114 -0.007222258
vt -0.08568093 -0.01630786
vt -0.08252818 -0.01682929
vt -0.07987337 -0.008652242
vt -0.07206358 0.06991196
vt -0.08109052 0.06678723
vt -0.07960559 0.06395761
vt -0.07148135 0.06676987
vt 0.09001067 0.05015008
vt 0.0871044 0.05924971
vt 0.08423982 0.05783341
vt 0.08685546 0.04964375
vt 0.1013766 0.02335597
vt 0.09764764 0.03110242
vt 0.09563912 0.02922913
vt 0.09865955 0.02295451
vt 0.08362513 0.04774522
vt 0.07597195 0.05166199
vt 0.07550434 0.04895557
vt 0.08170341 0.04578299
vt 0.02261246 0.06607606
vt 0.01465952 0.06281066
vt 0.01641104 0.06069511
vt 0.02285292 0.06334008
vt -0.02979655 0.02550566
vt -0.03395204 0.01797943
vt -0.03126166 0.01742694
vt -0.02789572 0.02352319
vt -0.04802701 -0.0341091
vt -0.04781144 -0.04270361
vt -0.04521048 -0.04182139
vt -0.04538509 -0.03485983
vt 0.03303558 -0.08232753
vt 0.04152339 -0.08369473
vt 0.04113407 -0.08097595
vt 0.03425894 -0.07986852
vt 0.1008987 0.01195346
vt 0.1016621 0.02051673
vt 0.09897764 0.01993605
vt 0.09835932 0.01299981
vt 0.05733 -0.01214119
vt 0.05609588 -0.005287664
vt 0.0499681 -0.001979461
vt 0.04356103 -0.004707703
vt 0.04169933 -0.01141798
vt 0.04578488 -0.01705732
vt 0.05274118 -0.01737917
o group1632027377
g mesh1632027377
usemtl mat19
f 4/4/1 3/3/1 2/2/1 1/1/1
f 3/8/2 6/7/2 5/6/2 2/5/2
f 6/12/3 8/11/3 7/10/3 5/9/3
f 8/16/4 10/15/4 9/14/4 7/13/4
f 10/20/5 12/19/5 11/18/5 9/17/5
f 12/24/6 14/23/6 13/22/6 11/21/6
f 14/28/7 4/27/7 1/26/7 13/25/7
f 16/32/8 15/31/8 11/30/8 13/29/8
f 14/39/9 12/38/9 10/37/9 8/36/9 6/35/9 3/34/9 4/33/9
f 15/43/10 17/42/10 9/41/10 11/40/10
f 17/47/11 18/46/11 7/45/11 9/44/11
f 18/51/12 19/50/12 5/49/12 7/48/12
f 19/55/13 20/54/13 2/53/13 5/52/13
f 20/59/14 21/58/14 1/57/14 2/56/14
f 21/63/15 16/62/15 13/61/15 1/60/15
f 23/67/16 22/66/16 15/65/16 16/64/16
f 22/71/17 24/70/17 17/69/17 15/68/17
f 24/75/18 25/74/18 18/73/18 17/72/18
f 25/79/19 26/78/19 19/77/19 18/76/19
f 26/83/20 27/82/20 20/81/20 19/80/20
f 27/87/21 28/86/21 21/85/21 20/84/21
f 28/91/22 23/90/22 16/89/22 21/88/22
f 30/95/23 29/94/23 22/93/23 23/92/23
f 29/99/24 31/98/24 24/97/24 22/96/24
f 31/103/25 32/102/25 25/101/25 24/100/25
f 32/107/26 33/106/26 26/105/26 25/104/26
f 33/111/27 34/110/27 27/109/27 26/108/27
f 34/115/28 35/114/28 28/113/28 27/112/28
f 35/119/29 30/118/29 23/117/29 28/116/29
f 37/123/30 36/122/30 29/121/30 30/120/30
f 36/127/31 38/126/31 31/125/31 29/124/31
f 38/131/32 39/130/32 32/129/32 31/128/32
f 39/135/33 40/134/33 33/133/33 32/132/33
f 40/139/34 41/138/34 34/137/34 33/136/34
f 41/143/35 42/142/35 35/141/35 34/140/35
f 42/147/36 37/146/36 30/145/36 35/144/36
f 44/151/37 43/150/37 36/149/37 37/148/37
f 43/155/38 45/154/38 38/153/38 36/152/38
f 45/159/39 46/158/39 39/157/39 38/156/39
f 46/163/40 47/162/40 40/161/40 39/160/40
f 47/167/41 48/166/41 41/165/41 40/164/41
f 48/171/42 49/170/42 42/169/42 41/168/42
f 49/175/43 44/174/43 37/173/43 42/172/43
f 51/179/44 50/178/44 43/177/44 44/176/44
f 50/183/45 52/182/45 45/181/45 43/180/45
f 52/187/46 53/186/46 46/185/46 45/184/46
f 53/191/47 54/190/47 47/189/47 46/188/47
f 54/195/48 55/194/48 48/193/48 47/192/48
f 55/199/49 56/198/49 49/197/49 48/196/49
f 56/203/50 51/202/50 44/201/50 49/200/50
f 56/210/51 55/209/51 54/208/51 53/207/51 52/206/51 50/205/51 51/204/51
